# xmcd
# 
# Track frame offsets:
#     150
#     19761
#     36422
#     55938
#     76869
#     93017
#     111078
#     127930
#     147132
#     163667
#     178873
#     196380
# 
# Disc length: 2838
# 
# Revision: 0
# Processed by: cddbd v1.5.2PL0 Copyright (c) Steve Scherf et al.
# Submitted via: fre:ac v1.0.31
# 
DISCID=970b140c
DTITLE=Fairground Saints - Fairground Saints
DYEAR=2015
DGENRE=Folk
TTITLE0=Ain't Much For Lyin'
TTITLE1=Can't Control The Weather
TTITLE2=All For You
TTITLE3=Church
TTITLE4=Still
TTITLE5=Gossip Land
TTITLE6=I Wish I Was
TTITLE7=Until Then
TTITLE8=Sunday Lover
TTITLE9=Made To be Forgotten
TTITLE10=Turn This Car Around
TTITLE11=Somethin' For Nothin'
EXTD=
EXTT0=
EXTT1=
EXTT2=
EXTT3=
EXTT4=
EXTT5=
EXTT6=
EXTT7=
EXTT8=
EXTT9=
EXTT10=
EXTT11=
PLAYORDER=
